<?xml version="1.0" encoding="UTF-8"?>
<svg id="a" data-name="Слой 1" xmlns="http://www.w3.org/2000/svg" viewBox="0 0 3200 2000">
  <rect x="0" y="0" width="3200" height="2000" style="fill: #fff; stroke-width: 0px;"/>
  <g>
    <path d="m345.29,1707.36c.13.1,2521.51-.31,2521.51-.31,83.01-177.06,82.87-263.57,92.31-365.06,52.15-560.95-370.35-647.19-494.12-670.58-378.99-71.62-206.5-425.99-1194.08-359.51-90.51,6.09-303.93,55.29-377.48,87.16-51.59,22.34-245.95,122.29-302.97,291.36-18.01,53.36-22.33,113.61-4.17,180.47,64.27,236.61-103.29,223.01-225.73,335.77-163.42,150.49-146.34,396.59-15.27,500.69Z" style="fill: #ebf3fa; stroke-width: 0px;"/>
    <g>
      <path d="m1847.22,1707.21h.35c2.04,0,3.67-1.68,3.63-3.71l-5.5-238.41-16.2-1.89,13.82,240.31c.12,2.07,1.84,3.7,3.91,3.7Z" style="fill: #b0d4ff; stroke-width: 0px;"/>
      <path d="m1941.63,1707.21h.35c2.04,0,3.67-1.68,3.63-3.71l-5.5-238.41-16.2-1.89,13.82,240.31c.12,2.07,1.84,3.7,3.91,3.7Z" style="fill: #95c0f4; stroke-width: 0px;"/>
      <path d="m1681.09,1707.21h-.35c-2.04,0-3.67-1.68-3.63-3.71l5.5-238.41,16.2-1.89-13.82,240.31c-.12,2.07-1.84,3.7-3.91,3.7Z" style="fill: #b0d4ff; stroke-width: 0px;"/>
      <path d="m1952.37,1450.3v-163.37c0-28.75-23.3-52.05-52.05-52.05h-117.7c-28.75,0-52.05,23.3-52.05,52.05v169.61l221.8-6.24Z" style="fill: #b0d4ff; stroke-width: 0px;"/>
      <path d="m1725.11,1450.3h227.26v25.79h-242.89v-10.16c0-8.63,7-15.63,15.63-15.63Z" transform="translate(3661.85 2926.4) rotate(180)" style="fill: #95c0f4; stroke-width: 0px;"/>
      <path d="m1682.25,1450.3h171.93c6.38,0,11.56,5.18,11.56,11.56v2.68c0,6.38-5.18,11.56-11.56,11.56h-171.93c-6.38,0-11.56-5.18-11.56-11.56v-2.68c0-6.38,5.18-11.56,11.56-11.56Z" transform="translate(3536.43 2926.4) rotate(180)" style="fill: #cae5ff; stroke-width: 0px;"/>
    </g>
    <g>
      <rect x="1399.89" y="590.47" width="678.53" height="585.74" style="fill: #95c0f4; stroke-width: 0px;"/>
      <g>
        <rect x="1412.81" y="600.23" width="652.42" height="564.3" style="fill: #dfedfb; stroke-width: 0px;"/>
        <g>
          <polygon points="1640.84 845.75 1497.87 845.75 1497.87 667.23 1522.12 645.38 1640.84 645.38 1640.84 845.75" style="fill: #fff; stroke-width: 0px;"/>
          <polygon points="1497.87 667.23 1521.34 667.23 1522.12 645.38 1497.87 667.23" style="fill: #b0d4ff; stroke-width: 0px;"/>
          <rect x="1546.47" y="662.75" width="45.77" height="2.18" style="fill: #b0d4ff; stroke-width: 0px;"/>
          <rect x="1535.69" y="669.29" width="67.33" height="2.18" style="fill: #b0d4ff; stroke-width: 0px;"/>
          <rect x="1514.8" y="711.29" width="111.79" height="2.8" style="fill: #b0d4ff; stroke-width: 0px;"/>
          <rect x="1514.8" y="719.8" width="111.79" height="2.8" style="fill: #b0d4ff; stroke-width: 0px;"/>
          <rect x="1514.8" y="728.32" width="111.79" height="2.8" style="fill: #b0d4ff; stroke-width: 0px;"/>
          <rect x="1514.8" y="736.83" width="111.79" height="2.8" style="fill: #b0d4ff; stroke-width: 0px;"/>
          <rect x="1514.8" y="827.91" width="111.79" height="2.8" style="fill: #b0d4ff; stroke-width: 0px;"/>
        </g>
        <g>
          <polygon points="1805.91 1093.43 1662.95 1093.43 1662.95 914.91 1687.19 893.06 1805.91 893.06 1805.91 1093.43" style="fill: #fff; stroke-width: 0px;"/>
          <polygon points="1662.95 914.91 1686.41 914.91 1687.19 893.06 1662.95 914.91" style="fill: #b0d4ff; stroke-width: 0px;"/>
          <rect x="1711.54" y="910.43" width="45.78" height="2.18" style="fill: #b0d4ff; stroke-width: 0px;"/>
          <rect x="1700.77" y="916.97" width="67.33" height="2.18" style="fill: #b0d4ff; stroke-width: 0px;"/>
          <rect x="1679.88" y="958.97" width="111.79" height="2.8" style="fill: #b0d4ff; stroke-width: 0px;"/>
          <rect x="1679.88" y="967.48" width="111.79" height="2.8" style="fill: #b0d4ff; stroke-width: 0px;"/>
          <rect x="1679.88" y="975.99" width="111.79" height="2.8" style="fill: #b0d4ff; stroke-width: 0px;"/>
          <rect x="1679.88" y="984.51" width="111.79" height="2.8" style="fill: #b0d4ff; stroke-width: 0px;"/>
          <rect x="1679.88" y="1010.7" width="111.79" height="2.8" style="fill: #b0d4ff; stroke-width: 0px;"/>
          <rect x="1679.88" y="1019.21" width="111.79" height="2.8" style="fill: #b0d4ff; stroke-width: 0px;"/>
          <rect x="1679.88" y="1029.08" width="111.79" height="2.8" style="fill: #b0d4ff; stroke-width: 0px;"/>
        </g>
        <g>
          <rect x="1807.65" y="645.38" width="78.94" height="69.6" style="fill: #b0d4ff; stroke-width: 0px;"/>
          <path d="m1843.66,653.66c0-1.91,1.55-3.46,3.46-3.46s3.46,1.55,3.46,3.46-1.55,3.46-3.46,3.46-3.46-1.55-3.46-3.46Z" style="fill: #ffa412; stroke-width: 0px;"/>
        </g>
        <g>
          <rect x="1807.65" y="739.51" width="78.94" height="69.6" transform="translate(-49.44 130.51) rotate(-3.99)" style="fill: #fff; stroke-width: 0px;"/>
          <path d="m1842.13,752.4c-.13-1.9,1.3-3.56,3.21-3.69,1.9-.13,3.56,1.3,3.69,3.21s-1.3,3.56-3.21,3.69-3.56-1.3-3.69-3.21Z" style="fill: #b0d4ff; stroke-width: 0px;"/>
        </g>
        <g>
          <rect x="1545.32" y="995.91" width="78.94" height="69.6" transform="translate(-67.93 112.87) rotate(-3.99)" style="fill: #fff; stroke-width: 0px;"/>
          <path d="m1579.8,1008.8c-.13-1.9,1.3-3.56,3.21-3.69,1.9-.13,3.56,1.3,3.69,3.21.13,1.9-1.3,3.56-3.21,3.69-1.9.13-3.56-1.3-3.69-3.21Z" style="fill: #b0d4ff; stroke-width: 0px;"/>
        </g>
        <g>
          <rect x="1444.07" y="1043.59" width="78.94" height="69.6" transform="translate(-10.98 15.27) rotate(-.59)" style="fill: #fff; stroke-width: 0px;"/>
          <path d="m1479.86,1056.23c-.02-1.91,1.51-3.47,3.42-3.49,1.91-.02,3.47,1.51,3.49,3.42.02,1.91-1.51,3.47-3.42,3.49-1.91.02-3.47-1.51-3.49-3.42Z" style="fill: #b0d4ff; stroke-width: 0px;"/>
        </g>
        <g>
          <rect x="1919.14" y="785.28" width="78.94" height="69.6" transform="translate(174.82 -331.79) rotate(10.13)" style="fill: #eef6ff; stroke-width: 0px;"/>
          <path d="m1960.12,794.58c.29-1.63,1.85-2.72,3.49-2.43s2.72,1.85,2.43,3.49-1.85,2.72-3.49,2.43c-1.63-.29-2.72-1.85-2.43-3.49Z" style="fill: #78acea; stroke-width: 0px;"/>
        </g>
        <g>
          <rect x="1686.12" y="739.51" width="78.94" height="69.6" transform="translate(-73.3 190.17) rotate(-6.18)" style="fill: #eef6ff; stroke-width: 0px;"/>
          <path d="m1719.87,749.41c-.18-1.65,1.01-3.13,2.67-3.31,1.65-.18,3.13,1.01,3.31,2.66.18,1.65-1.01,3.13-2.66,3.31-1.65.18-3.13-1.01-3.31-2.66Z" style="fill: #78acea; stroke-width: 0px;"/>
        </g>
        <g>
          <rect x="1485.36" y="907.44" width="78.94" height="69.6" transform="translate(-162.97 338.71) rotate(-12.04)" style="fill: #bae8e3; stroke-width: 0px;"/>
          <path d="m1517.9,919.92c-1.39-.9-1.79-2.76-.89-4.16.9-1.39,2.76-1.79,4.16-.89,1.39.9,1.79,2.76.89,4.16-.9,1.39-2.76,1.79-4.16.89Z" style="fill: #ffa412; stroke-width: 0px;"/>
        </g>
        <g>
          <g>
            <polygon points="1763.16 714.97 1688.02 714.97 1688.02 664.49 1708.83 645.38 1763.16 645.38 1763.16 714.97" style="fill: #fff; stroke-width: 0px;"/>
            <polygon points="1687.62 664.49 1708.14 664.49 1708.83 645.38 1687.62 664.49" style="fill: #b0d4ff; stroke-width: 0px;"/>
          </g>
          <path d="m1725.87,651.82c0-1.36,1.11-2.47,2.47-2.47s2.47,1.11,2.47,2.47-1.11,2.47-2.47,2.47-2.47-1.11-2.47-2.47Z" style="fill: #b0d4ff; stroke-width: 0px;"/>
        </g>
        <g>
          <g>
            <polygon points="1982.69 1128.23 1907.56 1128.23 1907.56 1077.74 1928.36 1058.63 1982.69 1058.63 1982.69 1128.23" style="fill: #fff; stroke-width: 0px;"/>
            <polygon points="1907.16 1077.74 1927.68 1077.74 1928.36 1058.63 1907.16 1077.74" style="fill: #b0d4ff; stroke-width: 0px;"/>
          </g>
          <path d="m1945.4,1065.07c0-1.36,1.11-2.47,2.47-2.47s2.47,1.11,2.47,2.47-1.11,2.47-2.47,2.47-2.47-1.11-2.47-2.47Z" style="fill: #b0d4ff; stroke-width: 0px;"/>
        </g>
        <g>
          <g>
            <polygon points="2016.97 1028.04 1941.83 1028.04 1941.83 977.56 1962.63 958.44 2016.97 958.44 2016.97 1028.04" style="fill: #fff; stroke-width: 0px;"/>
            <polygon points="1941.43 977.56 1961.95 977.56 1962.63 958.44 1941.43 977.56" style="fill: #b0d4ff; stroke-width: 0px;"/>
          </g>
          <path d="m1979.68,964.88c0-1.36,1.11-2.47,2.47-2.47s2.47,1.11,2.47,2.47-1.11,2.47-2.47,2.47-2.47-1.11-2.47-2.47Z" style="fill: #b0d4ff; stroke-width: 0px;"/>
        </g>
        <g>
          <g>
            <polygon points="1917.81 1028.04 1842.68 1028.04 1842.68 977.56 1863.48 958.44 1917.81 958.44 1917.81 1028.04" style="fill: #bae8e3; stroke-width: 0px;"/>
            <polygon points="1842.28 977.56 1862.8 977.56 1863.48 958.44 1842.28 977.56" style="fill: #a1d6ce; stroke-width: 0px;"/>
          </g>
          <path d="m1880.52,964.88c0-1.36,1.11-2.47,2.47-2.47s2.47,1.11,2.47,2.47-1.11,2.47-2.47,2.47-2.47-1.11-2.47-2.47Z" style="fill: #f99746; stroke-width: 0px;"/>
        </g>
        <g>
          <g>
            <polygon points="2038.17 697.55 1963.04 697.55 1963.04 647.07 1983.84 627.96 2038.17 627.96 2038.17 697.55" style="fill: #bae8e3; stroke-width: 0px;"/>
            <polygon points="1962.63 647.07 1983.16 647.07 1983.84 627.96 1962.63 647.07" style="fill: #a1d6ce; stroke-width: 0px;"/>
          </g>
          <path d="m2000.88,634.39c0-1.36,1.11-2.47,2.47-2.47s2.47,1.11,2.47,2.47-1.11,2.47-2.47,2.47-2.47-1.11-2.47-2.47Z" style="fill: #f99746; stroke-width: 0px;"/>
        </g>
      </g>
    </g>
    <g>
      <rect x="1140.31" y="414.5" width="166.78" height="161.8" rx="11.93" ry="11.93" style="fill: #c0d8fb; stroke-width: 0px;"/>
      <path d="m1158.43,421.51h130.54c6.01,0,10.9,4.88,10.9,10.9v125.99c0,6.01-4.88,10.9-10.9,10.9h-130.54c-6.01,0-10.9-4.88-10.9-10.9v-125.99c0-6.01,4.88-10.9,10.9-10.9Z" style="fill: #dfebfd; stroke-width: 0px;"/>
      <g>
        <g>
          <path d="m1220.24,436.28c0-1.91,1.55-3.45,3.45-3.45s3.45,1.55,3.45,3.45-1.55,3.45-3.45,3.45-3.45-1.55-3.45-3.45Z" style="fill: #b7d3f3; stroke-width: 0px;"/>
          <path d="m1248.12,441.16c.93-1.67,3.03-2.27,4.7-1.34,1.67.93,2.27,3.03,1.34,4.7-.93,1.67-3.03,2.27-4.7,1.34-1.67-.93-2.27-3.03-1.34-4.7Z" style="fill: #b7d3f3; stroke-width: 0px;"/>
          <path d="m1272,460.13c1.6-1.03,3.74-.57,4.78,1.03,1.03,1.6.57,3.74-1.03,4.78-1.6,1.03-3.74.57-4.78-1.03-1.03-1.6-.57-3.74,1.03-4.78Z" style="fill: #b7d3f3; stroke-width: 0px;"/>
          <path d="m1283.83,489.5c1.91,0,3.45,1.55,3.45,3.45s-1.55,3.45-3.45,3.45-3.45-1.55-3.45-3.45,1.55-3.45,3.45-3.45Z" style="fill: #b7d3f3; stroke-width: 0px;"/>
          <path d="m1277.79,523.58c1.35,1.35,1.35,3.54,0,4.89-1.35,1.35-3.54,1.35-4.89,0-1.35-1.35-1.35-3.54,0-4.89,1.35-1.35,3.54-1.35,4.89,0Z" style="fill: #b7d3f3; stroke-width: 0px;"/>
          <path d="m1256.1,545.34c1.35,1.35,1.35,3.54,0,4.89-1.35,1.35-3.54,1.35-4.89,0-1.35-1.35-1.35-3.54,0-4.89,1.35-1.35,3.54-1.35,4.89,0Z" style="fill: #b7d3f3; stroke-width: 0px;"/>
          <path d="m1220.24,556.55c0-1.91,1.55-3.45,3.45-3.45s3.45,1.55,3.45,3.45-1.55,3.45-3.45,3.45-3.45-1.55-3.45-3.45Z" style="fill: #b7d3f3; stroke-width: 0px;"/>
        </g>
        <g>
          <path d="m1199.17,441.16c-.93-1.67-3.03-2.27-4.7-1.34-1.67.93-2.27,3.03-1.34,4.7.93,1.67,3.03,2.27,4.7,1.34,1.67-.93,2.27-3.03,1.34-4.7Z" style="fill: #b7d3f3; stroke-width: 0px;"/>
          <path d="m1175.28,460.13c-1.6-1.03-3.74-.57-4.78,1.03-1.03,1.6-.57,3.74,1.03,4.78,1.6,1.03,3.74.57,4.78-1.03,1.03-1.6.57-3.74-1.03-4.78Z" style="fill: #b7d3f3; stroke-width: 0px;"/>
          <path d="m1163.45,489.5c-1.91,0-3.45,1.55-3.45,3.45s1.55,3.45,3.45,3.45,3.46-1.55,3.46-3.45-1.55-3.45-3.46-3.45Z" style="fill: #b7d3f3; stroke-width: 0px;"/>
          <path d="m1169.49,523.58c-1.35,1.35-1.35,3.54,0,4.89,1.35,1.35,3.54,1.35,4.89,0s1.35-3.54,0-4.89c-1.35-1.35-3.54-1.35-4.89,0Z" style="fill: #b7d3f3; stroke-width: 0px;"/>
          <path d="m1191.19,545.34c-1.35,1.35-1.35,3.54,0,4.89,1.35,1.35,3.54,1.35,4.89,0,1.35-1.35,1.35-3.54,0-4.89-1.35-1.35-3.54-1.35-4.89,0Z" style="fill: #b7d3f3; stroke-width: 0px;"/>
        </g>
      </g>
      <g>
        <path d="m1222.77,492.96c0-1.91,1.55-3.45,3.46-3.45s3.45,1.55,3.45,3.45-1.55,3.45-3.45,3.45-3.46-1.55-3.46-3.45Z" style="fill: #b7d3f3; stroke-width: 0px;"/>
        <rect x="1225.75" y="449.8" width=".94" height="43.16" style="fill: #b7d3f3; stroke-width: 0px;"/>
        <rect x="1222.68" y="482.5" width="29.09" height="2.83" transform="translate(-34.72 867.4) rotate(-38.14)" style="fill: #b7d3f3; stroke-width: 0px;"/>
      </g>
    </g>
    <g>
      <g>
        <path d="m2175,1698.68c-.68,9.28-13.78,9.38-28.64,7.66-14.86-1.72-10.91,2.04-31.72,2.33-20.81.29-27.98-6.59-28.99-9.56-.9-2.64,9.12-4.86,19.84-7.47,1.35-.32,2.7-.66,4.05-1.01,12.09-3.07,20.09-12.12,30.44-20.02,9.8-7.48,22.43-34.57,22.43-34.57l28.42-1.28s-11.97,24.28-16.47,34.74c-2.64,6.16-1.52,13.72-.37,19.53.62,3.16,1.23,6.39.98,9.66Z" style="fill: #ffb27d; stroke-width: 0px;"/>
        <path d="m2146.36,1706.33c-14.86-1.72-10.91,2.04-31.72,2.33-20.81.29-27.98-6.59-28.99-9.56-.9-2.64,9.12-4.86,19.84-7.47l.13.2s13.4,7.19,30.53,5.47c13.97-1.4,28.22-7.23,37.85-8.27.62,3.16,1.23,6.39.98,9.66-.68,9.28-13.78,9.38-28.64,7.66Z" style="fill: #233862; stroke-width: 0px;"/>
      </g>
      <g>
        <path d="m2371.31,1700.6c-.67,9.28-13.77,9.4-28.63,7.69-14.86-1.71-10.91,2.05-31.71,2.36-20.81.31-27.99-6.56-29-9.53-.9-2.64,9.12-4.87,19.84-7.49,1.35-.33,2.7-.67,4.05-1.01,12.09-3.08,20.08-12.14,30.42-20.05,9.79-7.49,0-51.86,0-51.86l31.26-3.04s-1.5,37.35-1.48,54.34c0,6.7,3.09,13.14,4.25,18.95.62,3.16,1.24,6.38.99,9.65Z" style="fill: #ffb27d; stroke-width: 0px;"/>
        <path d="m2342.68,1708.29c-14.86-1.71-10.91,2.05-31.71,2.36-20.81.31-27.99-6.56-29-9.53-.9-2.64,9.12-4.87,19.84-7.49l.13.2s13.4,7.18,30.54,5.44c13.96-1.41,28.21-7.26,37.84-8.31.62,3.16,1.24,6.38.99,9.65-.67,9.28-13.77,9.4-28.63,7.69Z" style="fill: #233862; stroke-width: 0px;"/>
      </g>
      <path d="m2280.07,933.87c-5.38-22.14,2.42-32.44,9.46-37.93,3.34-8.15,7.15-14.02,11.04-16.23,7.11-4.04,15.62-4.48,21.58-4.13-1.53-1.58-4.55-2.16-4.55-2.16,3.69-.55,11.94,3.11,11.94,3.11,51.37-19.79,59.45,55.85,58.37,73.42-1.07,17.57-.93,38.27,25.8,52.11,51,26.42-16.95,125.97-16.95,125.97,1.3-14.2-64.23-89.14-98.41-111.58-8.32-12.25-11.28-33.89-11.5-35.6,1.44,17.16,4.37,26.79,7,32.21-15.58-14.34-17.89-48.77-13.76-79.19Z" style="fill: #a9453d; stroke-width: 0px;"/>
      <path d="m2300.36,1017.57c-.17.08,16.51,8.74,29.05,5.31,11.8-3.22,19.51-18.52,19.35-18.55-5-.99-6.44-7.86-6.33-37.37l-2.26.44-37.98,7.52s.86,11.95.89,23.21c.03,9.46-.55,18.42-2.71,19.43Z" style="fill: #ffb27d; stroke-width: 0px;"/>
      <path d="m2302.18,974.92s.86,11.95.89,23.21c21.25-.6,32.49-19.99,37.09-30.74l-37.98,7.52Z" style="fill: #ed975d; stroke-width: 0px;"/>
      <path d="m2147.65,1651.09c-1.86,5.84,2.32,11.85,8.45,12.14l14.84.69,15.7.48c3.93.12,7.68-1.59,10.16-4.64,12.53-15.37,51.11-66.62,74.51-141.07.66-2.09,1.35-4.2,2.09-6.34,15.45-45.06,47.49-101.62,64.37-152.81,2.69-8.15,5.1-15.83,7.26-23.09.69-2.33,1.37-4.61,2.01-6.86,12.44-43.23,16.04-71.61,19.36-101.93l-121.91.98s-25.66,199.47-96.84,422.45Z" style="fill: #2a4e96; stroke-width: 0px;"/>
      <path d="m2261.56,1158.58c.31,58.01-8.51,82.9-8.51,82.9,0,0,52.2,26.52,114.23,7,.73-.23,51.36-11.79,51.36-11.79-1.04-2.35-10.27-41.44-11.28-43.6-13.1-28.13-23.04-40.46-24.6-49.11-2.88-16.14-2.95-32.85-1.51-48.6,3.78-41.7,15.04-76.32,15.04-76.32-16.9-3.85-32.73-10.6-50.32-17.2-4.05,5.04-16.42,10.31-27.15,10.07-12.36-.27-16.36-5.56-15.72-11.34-13.17,7.33-23.68,14.25-23.68,14.25-11.19,19.44-33.89,38.32-35.53,68.14-.41,7.33,17.65,73.97,17.66,75.6Z" style="fill: #fff; stroke-width: 0px;"/>
      <path d="m2366.4,1165.05c5.33,7.54,15.55,53.38,40.96,59.15-13.1-32.67-23.04-47-24.6-57.04-2.88-18.75-2.95-38.15-1.51-56.45-8.51-14.91-14.86-25.14-14.86-25.14-.67-2.41-13.52-42.16-17.64-6.63-4.11,35.53,11.69,77.68,17.64,86.12Z" style="fill: #5f9aa8; stroke-width: 0px;"/>
      <path d="m2295.09,985.58s50.29.83,50.32-30.5c.03-31.32,6.55-52.31-25.56-54.17-32.11-1.85-38.36,10.09-40.91,20.54-2.55,10.45,3.07,63.1,16.15,64.12Z" style="fill: #ffb27d; stroke-width: 0px;"/>
      <path d="m2296.95,900.15s13.77,36.75,34.9,42.18c21.13,5.43,30.3-.23,30.3-.23,0,0-16.21-12.88-19.57-35.35,0,0-35.24-24.1-45.62-6.6Z" style="fill: #a9453d; stroke-width: 0px;"/>
      <path d="m2300.36,903.14s-10.28,8.21-12.79,16.18c-2.51,7.98-3.63,24.4-8.42,23.84,0,0-10.37-24.98,1.28-39.11,12.36-14.98,19.93-.91,19.93-.91Z" style="fill: #a9453d; stroke-width: 0px;"/>
      <polygon points="2215.96 1198.85 2192.21 1271.26 2205.75 1276.69 2245.03 1212.71 2215.96 1198.85" style="fill: #ffb27d; stroke-width: 0px;"/>
      <path d="m2280,1010.58s-28.01,11.11-36.11,28.44c-8.11,17.33-20.38,133.55-25.27,145.48-4.89,11.94-8.56,21.38-8.56,21.38,0,0,14.12,11.9,28.32,12.77,14.2.88,41.62-208.08,41.62-208.08Z" style="fill: #f99746; stroke-width: 0px;"/>
      <path d="m2303.1,1000.6s-29.09,71.88-29.95,86.42c-.86,14.55-3.42,237.87-3.42,237.87,0,0,1.71,10.27-17.97,5.99s-24.81-8.56-24.81-8.56c0,0,18.82-137.76,13.69-185.68-5.13-47.92,39.36-126.07,39.36-126.07l23.1-9.98Z" style="fill: #f99746; stroke-width: 0px;"/>
      <path d="m2170.93,1663.92l17.05.52c3.05.09,5.96-1.22,7.91-3.57,11.46-13.88,51.42-65.82,75.42-142.17.66-2.09,1.35-4.2,2.09-6.34,15.45-45.06,47.49-101.62,64.37-152.81,2.69-8.15,5.1-15.83,7.26-23.09.69-2.33,1.37-4.61,2.01-6.86l-17.95-13.62s-53.9,87.28-70.58,169.41c-14.5,71.34-72.54,157.19-87.57,178.54Z" style="fill: #1e3d70; stroke-width: 0px;"/>
      <path d="m2327.21,1493.03c-.29,37.79,1.5,122.01,6.1,163.18.42,3.77,3.61,6.61,7.4,6.61h12.72c5.36,0,9.37-.04,12.04-.08,2.31-.03,4.28-1.69,4.72-3.95,12.65-64.37,21.7-117.84,28.33-164.05,5.54-38.68,10.47-71.83,14.26-100.38,3.82-28.72,6.47-52.78,7.42-73.1.15-3.2.26-6.31.32-9.33.06-3.04.08-5.99.05-8.86l-105.33-10.27c1.33,69.98,12.15,177.01,11.98,200.22Z" style="fill: #2a4e96; stroke-width: 0px;"/>
      <path d="m2353.42,1662.82c4.82,0,8.54-.03,11.18-.07,2.8-.04,5.2-2.04,5.74-4.79,12.56-64,21.57-117.21,28.17-163.22,5.54-38.68,10.47-71.83,14.26-100.38,3.82-28.72,6.47-52.78,7.42-73.1l-38.65,22.74s24.67,8.7,15.26,74.59c-9.41,65.88-30.27,234.9-43.37,244.23Z" style="fill: #1e3d70; stroke-width: 0px;"/>
      <path d="m2348.45,1320.62s7.42,26.81,33.09,23.38c25.67-3.42,62.17-18.82,62.17-18.82,0,0-10.97-34.66-24.61-80.2-16.51-55.13-36.96-126.2-46.59-171.03-2.7-12.56-4.55-23.05-5.24-30.56l-21.3-41.32s-31.75,71.27-33.46,89.24c-1.71,17.97,35.94,229.32,35.94,229.32Z" style="fill: #f99746; stroke-width: 0px;"/>
      <path d="m2374.08,1088.62l-28.11-86.56c.08.04,35.5,10.54,53.32,19.54,0,0,11.14,14.36,18.03,47.49,0,0,7.28,79.54-8.98,108.63,0,0-51.34,10.27-133.48-17.97v-18.82s89.84,4.71,108.24,6.84l-9.02-59.15Z" style="fill: #ffb27d; stroke-width: 0px;"/>
      <path d="m2349.59,1128.95c1.15,29.09,7.99,85.57,69.03,115.8.16.08.32.16.49.23-16.51-55.13-36.96-126.2-46.59-171.03-11.21,16.75-23.55,38.98-22.92,55Z" style="fill: #ed7d2b; stroke-width: 0px;"/>
      <path d="m2345.97,1002.06s52.1,3.67,64.65,31.62c12.55,27.95,16.54,120.93.57,148.31,0,0-21.99,6.26-60.88-1.01-.48-.09-.96-.18-1.44-.27,0,0-12.41-30.38-1.28-36.37,0,0,32.8,1.71,29.38-9.13-3.42-10.84-31-133.16-31-133.16Z" style="fill: #f99746; stroke-width: 0px;"/>
      <g>
        <path d="m2215.34,1152.56l1.54,4.93,85.5-26.6s1.14-1.3.58-3.02c-.62-1.91-2.11-1.91-2.11-1.91l-85.5,26.6Z" style="fill: #a9453d; stroke-width: 0px;"/>
        <polygon points="2209.15 1157.22 2215.34 1152.56 2216.87 1157.49 2209.15 1157.22" style="fill: #a9453d; stroke-width: 0px;"/>
      </g>
      <path d="m2195.58,1269.28s-21.69,11.99-24.54,21.12c-2.85,9.13-.89,28.25,2.55,27.97,3.44-.29,8.58-20.55,11.43-21.97,2.85-1.43,6.85-5.7,6.85-2.57s-2.85,8.84-1.43,9.7c1.43.86,5.99-7.99,9.13-9.7,3.14-1.71,4.46-15.83,7.51-19.61,3.05-3.79-11.5-4.93-11.5-4.93Z" style="fill: #ffb27d; stroke-width: 0px;"/>
      <path d="m2274.86,1140.93s-19.4-11.95-27.53-10.11c-8.14,1.84-28.87,16.86-18.9,20.11,9.97,3.25,18.05-.16,21.89,2.2,3.84,2.36,6.67,6.68,24.54,6.62,17.88-.06,0-18.82,0-18.82Z" style="fill: #ffb27d; stroke-width: 0px;"/>
    </g>
    <g>
      <path d="m749.47,1012.59c-3.25-6.27,70.94-28.85,72.11,33.04,0,0,138.98-3.42,72.62-80.88-22.97-26.82-20.61-48.99-19.92-69.63.7-20.64-14.31-80.63-65.75-74.59,0,0-13.47-5.48-30.28,3.24-38.23,19.83-123.88,211.65-28.78,188.82Z" style="fill: #163560; stroke-width: 0px;"/>
      <path d="m976.68,1081.78s9.05-13.77,16.34-14.04c7.29-.27,20.79-4.05,19.71-1.35-1.08,2.7-9.45,2.97-10.26,4.59-.81,1.62,12.42,4.05,16.2,4.32,3.78.27,12.69,0,12.42,1.89-.27,1.89-16.06,9.72-27.2,8.64-11.14-1.08-24.91,3.24-24.91,3.24l-2.3-7.29Z" style="fill: #ffb27d; stroke-width: 0px;"/>
      <path d="m845.85,1086.24s4.92,9.74,13.84,20.92c10.75,13.46,27.32,29.02,48.14,32.09,9.94,1.47,19.66-.67,28.6-4.64.02,0,.03,0,.03,0,25.27-11.22,44.28-37.02,44.28-37.02,4.46-12.15-2.83-20.39-2.83-20.39,0,0-51.04,11.48-55.9,9.05-4.86-2.43-33.21-84.11-39.96-94.38-6.76-10.26-29.76-15.59-29.76-15.59l-6.42,109.97Z" style="fill: #b0d0ff; stroke-width: 0px;"/>
      <path d="m859.68,1107.16c10.75,13.46,27.32,29.02,48.14,32.09,9.94,1.47,19.66-.67,28.6-4.64-.99.13-26.23,3.25-36.29-14.75-10.26-18.37-21.36-47.53-36.61-37.81-6.58,4.2-6.29,14.62-3.83,25.11Z" style="fill: #98baf4; stroke-width: 0px;"/>
      <path d="m655.44,1637.14s-15.57,14.21-12.53,24.31c3.04,10.1,17.09,16.83,18.99,29.17,1.9,12.34,9.5,19.07,16.33,19.07h32.6s5.03-8.69-7.12-11.3c-12.15-2.62-16.74-17.12-15.98-30.59.76-13.46-1.14-31.42-1.14-31.42l-25.83-5.98-5.32,6.73Z" style="fill: #233862; stroke-width: 0px;"/>
      <path d="m787.25,1643.18s-5.6,60.21,1.23,63.57l87.5-.18s0-10.1-14.05-12.34c-14.05-2.24-38.74-10.47-42.92-28.8-4.18-18.33-31.76-22.25-31.76-22.25Z" style="fill: #233862; stroke-width: 0px;"/>
      <path d="m724.9,1211.24c18.01-40.38,29.02-51.97,26.92-64.5-1.57-9.33,4.77-173.92,4.77-173.92,2.14-.66,6.42-1.25,8.76-1.77,7.39-1.64,13.5-6.83,16.04-13.95,3.06-8.58,5.5-21.26,5.44-37.14l2.31.45,38.78,7.68s-.88,12.2-.91,23.7c0,.1,0,.19,0,.29-.05,9.99,6.5,18.8,16.1,21.57,4.9,1.41,9.16,2.62,9.16,2.62,0,0,14.24,40.66,16.96,82.42,2.72,41.77-25.9,59.91.22,143.37,26.66,85.24-154.49,31.49-144.54,9.18Z" style="fill: #ffb27d; stroke-width: 0px;"/>
      <path d="m827.92,928.09s-.88,12.2-.91,23.7c-21.7-.61-33.17-20.41-37.87-31.38l38.78,7.68Z" style="fill: #e8945b; stroke-width: 0px;"/>
      <path d="m835.17,938.97s-51.35.85-51.38-31.14c-.04-31.98-6.69-53.41,26.09-55.31,32.78-1.89,39.16,10.3,41.77,20.98s-3.13,64.42-16.49,65.47Z" style="fill: #ffb27d; stroke-width: 0px;"/>
      <path d="m833.27,851.75s-14.06,37.52-35.63,43.07c-21.57,5.55-30.93-.23-30.93-.23,0,0,16.55-13.15,19.98-36.09,0,0,35.98-24.6,46.58-6.74Z" style="fill: #163560; stroke-width: 0px;"/>
      <path d="m829.78,854.79s10.42,3.9,14.72,11.5c4.2,7.44,7.77,17.28,6.94,29.36,0,0,10.59-25.5-1.31-39.93-12.62-15.3-20.34-.93-20.34-.93Z" style="fill: #163560; stroke-width: 0px;"/>
      <path d="m823.99,919.13s3.54,4.66,10.63,4.33c5.71-.27,7.91-5.22,7.91-5.22,0,0-10.49-2.52-18.54.9Z" style="fill: #ebf3fa; stroke-width: 0px;"/>
      <path d="m719.94,1045.62s-1.3,18.38,0,40.44c.87,14.62,15.66,34.21,17.76,39.05,5.27,12.15,11.2,14.13,11.2,14.13l45.94,11.26,16.15,3.95,50.94-15.21s23.2-64.76,13.89-101.21c-9.32-36.45-23.55-61.77-23.55-61.77,0,0-41.57,40.7-95.69-3.45l-36.64,72.81Z" style="fill: #b0d0ff; stroke-width: 0px;"/>
      <path d="m733.39,1092.04c.87,14.62,2.21,28.24,4.31,33.08,5.27,12.15,11.2,14.13,11.2,14.13l45.94,11.26,19.95-5.87s-66.61-10.09-59.23-67.4l-22.18,14.79Z" style="fill: #f2ccaa; stroke-width: 0px;"/>
      <path d="m858.7,1149.08s25.23,78.52,26.85,105.25-48.22,379.77-50.23,392.09c-1.89,11.61-16.31,19.01-16.31,19.01,0,0-6.63,3.91-16.1,1.24-13.13-3.71-17.28-8.15-17.28-8.15,0,0-19.63-251.78-7.48-341.72,12.15-89.94,12.29-167.72,12.29-167.72h68.26Z" style="fill: #ed7d2b; stroke-width: 0px;"/>
      <path d="m751.82,1146.74s-38.48,51.63-42.07,86.53c-3.59,34.9-5.63,157.5-13.27,191.52-7.64,34.02-35.72,99.5-35.72,205.62,0,0,2.92,6.08,11.93,9.32,2.88,1.04,6.74,2.04,10.49,2.9,7.43,1.7,15.06-1.93,18.45-8.76,18.98-38.22,79.46-161.5,82.56-187.09,2.19-18.11,21.29-137.96,62.94-208.29,10-16.88-6.14-84.03-6.14-84.03l-89.17-7.72Z" style="fill: #f99746; stroke-width: 0px;"/>
      <path d="m825.14,919.99s.89,3.77,10.26,3.19c0,0,7.87-.49,7.63-4.63,0,0-7.63-2.95-17.9,1.44Z" style="fill: #fff; stroke-width: 0px;"/>
      <path d="m862.73,1136.96s-10.13,8.01-30.25,8.42c-24.03.48-83.57-6.13-83.57-6.13,0,0-2.65,7.39-2.54,15.2,0,0,72.72,18.34,114.86,2.68,0,0,5.43-10.23,1.5-20.17Z" style="fill: #233862; stroke-width: 0px;"/>
      <path d="m827.28,1153.67c0-6.84,4.92-12.41,10.96-12.41s10.97,5.57,10.97,12.41-4.92,12.41-10.97,12.41-10.96-5.57-10.96-12.41Zm3.63,0c0,4.84,3.29,8.78,7.33,8.78s7.33-3.94,7.33-8.78-3.29-8.78-7.33-8.78-7.33,3.94-7.33,8.78Z" style="fill: #fff; stroke-width: 0px;"/>
      <rect x="702.88" y="1064.99" width="98.8" height="135.24" transform="translate(575.84 2480.78) rotate(-138.95)" style="fill: #b5453c; stroke-width: 0px;"/>
      <path d="m765.71,1151.4s27.3,3.19,27.21,9.67c-.09,6.48-6.8,19.79-10.17,20.38-3.37.59-22.22-18-22.22-18l5.18-12.05Z" style="fill: #ffb27d; stroke-width: 0px;"/>
      <path d="m756.58,972.81s-36.45,2.56-50.42,36.52c-13.97,33.96-40.48,90.99-40.48,100.58s14.81,39.17,94.33,56.17c0,0,8.23-8.65,7.73-15.49,0,0-49.64-42.64-49.51-47.62.25-9.43,8.14-21.87,51.72-65.47,11.85-11.85-13.37-64.68-13.37-64.68Z" style="fill: #b0d0ff; stroke-width: 0px;"/>
    </g>
    <g>
      <g>
        <path d="m1159.27,1707.84h-.35c-2.04,0-3.67-1.68-3.63-3.71l5.5-238.41,16.2-1.89-13.82,240.31c-.12,2.07-1.84,3.69-3.91,3.69Z" style="fill: #b0d4ff; stroke-width: 0px;"/>
        <path d="m1064.85,1707.84h-.35c-2.04,0-3.67-1.68-3.63-3.71l5.5-238.41,16.2-1.89-13.82,240.31c-.12,2.07-1.84,3.69-3.91,3.69Z" style="fill: #95c0f4; stroke-width: 0px;"/>
        <path d="m1325.39,1707.84h.35c2.04,0,3.67-1.68,3.63-3.71l-5.5-238.41-16.2-1.89,13.82,240.31c.12,2.07,1.84,3.69,3.91,3.69Z" style="fill: #b0d4ff; stroke-width: 0px;"/>
        <path d="m1054.11,1450.94v-163.37c0-28.75,23.3-52.05,52.05-52.05h117.7c28.75,0,52.05,23.3,52.05,52.05v169.61l-221.8-6.24Z" style="fill: #b0d4ff; stroke-width: 0px;"/>
        <path d="m1054.11,1450.94h242.89v25.79h-227.26c-8.63,0-15.63-7-15.63-15.63v-10.16h0Z" style="fill: #95c0f4; stroke-width: 0px;"/>
        <rect x="1140.75" y="1450.94" width="195.04" height="25.79" rx="11.56" ry="11.56" style="fill: #b0d4ff; stroke-width: 0px;"/>
      </g>
      <g>
        <path d="m1317.56,1410.23c-16.86,29.35-38.07,40.68-38.07,40.68h-88.23s139.16-63.06,126.3-40.68Z" style="fill: #233862; stroke-width: 0px;"/>
        <g>
          <path d="m1249.79,1637.3c-2.3,2.64-2.59,5.58-1.45,8.72,0,.01,0,.03.02.04,2.1,5.81,9.06,12.31,17.13,18.79,1.03.83,1.95,1.59,2.75,2.29.21.18.42.37.62.55.16.14.32.29.47.43,7.53,6.94,4.7,8.53,18.23,22.62,15.43,16.05,26.05,16.34,29.07,14.88,2.56-1.25-2.64-9.76-8.39-19.33-.28-.46-.55-.93-.84-1.4-.77-1.27-1.53-2.56-2.29-3.84-6.74-11.52-5.01-16.92-3.41-34.06,1.3-13.93,21.66-77.8,21.66-77.8l-29.56-5.09s-8.9,50.86-18.71,58.7c-5.25,4.17-11.12,4.23-16.16,7.32-.36.21-.71.44-1.05.66-2.87,1.9-5.78,3.86-8.09,6.5Z" style="fill: #ffb27d; stroke-width: 0px;"/>
          <path d="m1249.79,1637.3c-2.3,2.64-2.59,5.58-1.45,8.72,0,.01,0,.03.02.04,2.58,5.81,9.35,12.27,17.16,18.73,1.02.85,1.92,1.62,2.72,2.35.21.18.42.37.62.55.16.14.32.29.47.43,7.53,6.94,4.7,8.53,18.23,22.62,15.43,16.05,26.05,16.34,29.07,14.88,2.56-1.25-2.64-9.76-8.39-19.33-3-1.1-16.95-6.77-27.5-20.26-9.29-11.85-15.48-27.08-21.81-35.91-.36.21-.71.44-1.05.66-2.87,1.9-5.78,3.86-8.09,6.5Z" style="fill: #233862; stroke-width: 0px;"/>
          <path d="m1488.17,1618.83c1.83,9.13,14.83,7.6,29.37,4.05,14.53-3.55,11.08.67,31.76-1.62,20.68-2.29,26.95-10,27.58-13.08.56-2.73-9.65-3.69-20.62-4.95-1.38-.15-2.76-.33-4.15-.5-12.38-1.55-21.44-9.54-32.68-16.1-10.65-6.21-26.54-31.52-26.54-31.52l-28.36,2.25s14.88,22.61,20.64,32.44c3.39,5.78,3.21,13.43,2.78,19.33-.22,3.21-.43,6.49.22,9.7Z" style="fill: #ffb27d; stroke-width: 0px;"/>
          <path d="m1517.54,1622.88c14.53-3.55,11.08.67,31.76-1.62,20.68-2.29,26.95-10,27.58-13.08.56-2.73-9.65-3.69-20.62-4.95l-.1.21s-12.4,8.79-29.62,9.21c-14.03.34-28.89-3.68-38.58-3.52-.22,3.21-.43,6.49.22,9.7,1.83,9.13,14.83,7.6,29.37,4.05Z" style="fill: #233862; stroke-width: 0px;"/>
          <path d="m1379.47,1437.46l-26.52,71.35-34.62,93.16s-9.39.91-18.39-1.68c-8.28-2.39-17.79-8.66-17.79-8.66,0,0,9.61-100.03,27.54-157.45,4.6-14.74,9.75-26.66,15.43-33.37,27.8-32.85,54.34,36.65,54.34,36.65Z" style="fill: #233862; stroke-width: 0px;"/>
          <path d="m1352.51,1324.15c-17.37-5.6-66.92,1.59-116.69,11.33l-10.42-17.19-107.5-8.4s-35.47,78.67-16.05,128.79c2.85,7.37,8.53,12.09,18.19,12.25,0,0,1.57,0,1.57,0,0,0,63.98-.04,84.76-.04,53.46,0,113.14-36.75,120.87-38.29,12.64-2.53,17.69,22.75,30.33,49.28,12.64,26.54,118.79,117.53,118.79,117.53,0,0,16.31.16,23.05-2.37,7.25-2.72,9.9-6.25,9.9-6.25,0,0-117.62-234.02-156.8-246.66Z" style="fill: #2b478b; stroke-width: 0px;"/>
          <path d="m1221.17,1005.27c-13.77-7.23-34.73-8.21-38.13-8.67-40.74-5.47-65.25,53.72-66.7,71.66-2.66,33.06-20.15,38.1-44.76,58.81-49.36,41.51-34.88,89.75-7.89,107.68,16.19,10.75,44.74,0,44.74,0,.4.28,78.06-43.41,116.34-64.49,57.39-8.16,31.5-146.55-3.6-164.98Z" style="fill: #233862; stroke-width: 0px;"/>
          <path d="m1192.68,1152.31c.17.11-18.84,6.6-31.54.97-11.95-5.28-21.01-24.95-20.83-24.96,5.44-.25,11.41-5,16.01-36.2l2.32.83,38.93,14.01s-2.82,12.49-4.65,24.39c-1.54,9.99-2.36,19.55-.24,20.96Z" style="fill: #ffb27d; stroke-width: 0px;"/>
          <path d="m1197.57,1106.96s-2.82,12.49-4.65,24.39c-22.36-4.03-31.14-26.31-34.29-38.4l38.93,14.01Z" style="fill: #ed975d; stroke-width: 0px;"/>
          <path d="m1203.36,1119.35s-53.27-7.15-48.31-40.25c4.96-33.1,1.43-56.32,35.65-53.16,34.22,3.17,38.92,16.79,39.95,28.24,1.03,11.45-13.31,66.18-27.3,65.17Z" style="fill: #ffb27d; stroke-width: 0px;"/>
          <path d="m1228.72,1036.04s-34.1,29.39-57.29,31.75c-23.19,2.37-31.98-5.08-31.98-5.08,0,0,13.67-11.35,21.9-29.67,2.42-5.4,7.55-9.1,13.45-9.61,16.56-1.43,47.96-2.08,53.93,12.61Z" style="fill: #233862; stroke-width: 0px;"/>
          <path d="m1207.4,1033.4s11.41,11.03,15,19.21c3.47,7.89,4.51,26.78,1.75,34.28,0,0,17.77-34.56,7.71-51.35-10.67-17.81-24.46-2.14-24.46-2.14Z" style="fill: #233862; stroke-width: 0px;"/>
          <path d="m1237.54,1230.78c-1.61,107.83-.44,85.3-12.24,95.53-2.84,2.46-10.83,3.93-21.35,4.63-33.06,2.19-91.19-3.25-93.4-9.36-7.63-21.14-2.24-27.71-8.61-60.08-.66-3.44-1.48-7.17-2.45-11.23-5.31-22.23-10.47-29.8,8.35-65.51,17.07-32.35,34.8-58.61,36.4-57.66,45.03,26.73,48.66,4.26,48.66,4.26,0,0,45.41,46.83,44.62,99.43Z" style="fill: #fff; stroke-width: 0px;"/>
          <path d="m1352.95,1508.81l-34.62,93.16s-9.39.91-18.39-1.68c-8.28-2.39-17.79-8.66-17.79-8.66,0,0,9.61-100.03,27.54-157.45l43.25,74.63Z" style="fill: #2b478b; stroke-width: 0px;"/>
          <path d="m1192.92,1131.34s46.34,7.86,51.78,27.81c5.44,19.95,37.46,137.24,37.46,137.24,0,0-23.56,4.23-34.44-6.65-10.88-10.88-37.87-100.96-37.87-100.96l-16.94-57.43Z" style="fill: #fff; stroke-width: 0px;"/>
          <path d="m1203.96,1330.93c-33.06,2.19-91.19-3.25-93.4-9.36-7.63-21.14-2.24-27.71-8.61-60.08l15.95-44.91s-2.64,50.01,12.11,63.16c14.73,13.15,60.38,25.39,67.55,36.38,3.46,5.27,5.73,10.56,6.39,14.81Z" style="fill: #ebf3ff; stroke-width: 0px;"/>
          <path d="m1166.07,1309.9s32.62-7.26,37.88-4.37c5.26,2.89,18.13,13.44,19.74,17.11,1.61,3.67-11.72-2.79-16.05-3.95-2.81-.75-10.2,1.81-13.86,3.03-15.4,5.13-24.83,2.49-24.83,2.49l-2.88-14.32Z" style="fill: #ffb27d; stroke-width: 0px;"/>
          <path d="m1144.23,1127.06s-43.8,2.7-58.96,23.84c-21.34,29.77-63.68,156.64-39.42,173.56,27.33,19.05,124.37,4.98,124.37,4.98,0,0,3.23-15.09-1.26-22.4-4.49-7.3-77.51-19.1-80.88-22.47-3.37-3.37,42.13-65.72,42.13-75.83s14.03-81.7,14.03-81.7Z" style="fill: #fff; stroke-width: 0px;"/>
          <path d="m1205.53,1314.61s6.83,8.82,9.08,9.87c2.24,1.05,3.69.79,3.69.79l-4.61-8.29-8.16-2.37Z" style="fill: #ffb27d; stroke-width: 0px;"/>
          <path d="m1203.96,1305.53l19.87,9.65s-.85,1.38-3.29,1.27c-2.45-.11-8.62-2.37-8.62-2.37l-7.96-8.55Z" style="fill: #ffb27d; stroke-width: 0px;"/>
        </g>
        <g>
          <g>
            <polygon points="1214.61 1337.98 1371.8 1337.98 1419.08 1220.4 1262.14 1220.4 1214.61 1337.98" style="fill: #f99746; stroke-width: 0px;"/>
            <polygon points="1373.64 1333.4 1166.07 1333.4 1166.07 1337.98 1371.8 1337.98 1373.64 1333.4" style="fill: #ed7d2b; stroke-width: 0px;"/>
          </g>
          <path d="m1332.12,1279.19c1.19-4.13-1.2-7.48-5.34-7.48s-8.44,3.35-9.63,7.48c-1.19,4.13,1.2,7.48,5.34,7.48s8.45-3.35,9.63-7.48Z" style="fill: #fff; stroke-width: 0px;"/>
        </g>
      </g>
    </g>
    <g>
      <path d="m2035.59,1712.2h.46c2.69,0,4.86-2.35,4.8-5.2l-7.27-333.8-21.43-2.65,18.27,336.47c.16,2.9,2.43,5.17,5.17,5.17Z" style="fill: #78acea; stroke-width: 0px;"/>
      <path d="m1166.85,1712.2h-.46c-2.69,0-4.86-2.35-4.8-5.2l7.27-333.8,21.43-2.65-18.27,336.47c-.16,2.9-2.43,5.17-5.17,5.17Z" style="fill: #78acea; stroke-width: 0px;"/>
      <path d="m1144.64,1339.06h916.75c7.5,0,13.6,6.09,13.6,13.6v13.09c0,7.5-6.09,13.6-13.6,13.6h-916.75c-7.5,0-13.6-6.09-13.6-13.6v-13.08c0-7.5,6.09-13.6,13.6-13.6Z" style="fill: #78acea; stroke-width: 0px;"/>
    </g>
    <path d="m944.85,766.96c-3.46-85.71,68.38-123.79,141.83-123.79s153.39,19.03,160.32,133c4.46,73.32-34.63,118.43-147.18,118.43-37.96,0-67.46-5.99-90.05-16.66l-56.26,49.99,27.65-69.1c-24.49-22.77-34.81-54.89-36.3-91.88Z" style="fill: #dfedfb; stroke-width: 0px;"/>
    <g>
      <path d="m2614.35,1711.83s2.07-16.1,6.85-25.67c4.79-9.57,35.25-3.48,35.25-3.48,0,0,6.09,5.22,7.4,29.59l-49.5-.44Z" style="fill: #233862; stroke-width: 0px;"/>
      <path d="m2510.57,1711.61c7.16-4.37,3.08-36.96,3.08-36.96,0,0-33.35-26.68-37.94-6.25-4.59,20.43-31.68,29.6-47.11,32.1-10.65,1.73-13.94,7.62-14.97,11.11h96.93Z" style="fill: #233862; stroke-width: 0px;"/>
      <path d="m2579.65,1474.57c-1.36,7.48-2.22,13.62-2.45,18.01-3.1,60.48-50.91,198.75-59.46,201.98-13.23,4.99-34.07-5.62-44.97-9.09-4.52-1.44-7.57-6-6.56-10.62,23.67-108.84,32.38-265.56,35.54-358.34,1.6-46.74,9.62-79.02,9.62-79.02,0,0,116.6-31.11,117.29,8.24.61,34.82-38.62,171.39-49.02,228.84Z" style="fill: #213f7a; stroke-width: 0px;"/>
      <path d="m2579.65,1474.57l-77.89-158.07c1.6-46.74,9.62-79.02,9.62-79.02,0,0,116.6-31.11,117.29,8.24.61,34.82-38.62,171.39-49.02,228.84Z" style="fill: #233862; stroke-width: 0px;"/>
      <path d="m2553.71,1245.87l61.64,446.74s27.07,6.53,48.12,1.31c0,0,18.05-237.59,16.54-295.03-1.5-57.44,12.95-153.7-3.3-164.32-16.25-10.62-123,11.31-123,11.31Z" style="fill: #213f7a; stroke-width: 0px;"/>
      <path d="m2688.73,1238.42c.3,4.04-2.29,7.71-6.17,8.84-8.6,2.5-18.51,4.23-37.63,8.19-17.96,3.73-42.12,7.03-71.8,7.21-47.21.3-65.09-15.97-65.09-15.97-2.03.04,1.07-9.84,3.87-56.83.95-15.92,1.86-36.09,2.52-61.59.6-22.94,1-50.2,1.04-82.53.05-38.9,60.26-80.74,61.37-80.74v.02c.01,5.6,8.84,15.94,22.43,16.83,16.14,1.06,35.93-6.98,35.93-16.27,0-.09,29.17,46.66,39.53,96.48,5.23,25.08,3.12,24.4,14,176.36Z" style="fill: #b0d0ff; stroke-width: 0px;"/>
      <path d="m2576.83,965.01s-55.98-.48-69.46,18.42c-13.47,18.9-43.01,120.55-27.6,154.37,15.42,33.82,44.26-13.99,60.27-34.71,16.01-20.72,36.79-138.08,36.79-138.08Z" style="fill: #b0d0ff; stroke-width: 0px;"/>
      <path d="m2576.26,956.46l.03,5.79s-1.58,18.1,20.71,20.74c22.29,2.65,38.83-3.38,38.22-17.35-2.01-10.81-3.87-21.92-4.02-30.87-.05-3.33.17-6.85.79-10.84l-43.19-.86-12.72,2.08.16,31.31Z" style="fill: #ffb27d; stroke-width: 0px;"/>
      <path d="m2576.1,925.16l.16,31.31c4.59,2.13,9.76,3.43,15.57,3.43,19.85,0,32.68-14.55,39.38-25.12-.05-3.33.17-6.85.79-10.84l-43.19-.86-12.72,2.08Z" style="fill: #e2915a; stroke-width: 0px;"/>
      <path d="m2635.31,916.99c-5.01,26.97-39.81,26.08-54.84,24.39-4.23-.47-6.89-1.01-6.89-1.01-4.77-1.27-7.43-8.79-8.67-18.63-2.46-19.48.65-48.08,3.94-55.4,4.95-11.01,14.28-22.91,49.33-14.32,35.05,8.6,23.58,30.43,17.15,64.98Z" style="fill: #ffb27d; stroke-width: 0px;"/>
      <path d="m2519.59,1040.76s-21.65,47.82-21.02,62.15c0,0,10.72-.37,21.02,2.7,16.93,5.05,0-64.85,0-64.85Z" style="fill: #98baf4; stroke-width: 0px;"/>
      <path d="m2558.09,840.67s15.42-1.19,33.62-9.1c14.76-6.42,33.39.65,39.44,3.84-.16-.97-.55-2.3-1.47-3.64,0,0,2.71,1.92,3.12,4.62.28.21.4.35.33.4,0,0,3.08-.56,5.06.33,0,0-1.38-.2-1.88.69-.05.09-.13.17-.22.25,23.03,11.13,25.16,47.53,17.75,55.95-8.92,10.13-22.38,33.06-22.38,33.06,0,0-1.13-5.5.5-14.42,1.62-8.92-6.08-8.92-15.81-12.97-9.73-4.05-1.62-15.4-10.13-22.29-8.51-6.89-39.72-2.84-39.32-8.11-11.59-4.22-8.58-27.42-8.58-28.6Z" style="fill: #233862; stroke-width: 0px;"/>
      <path d="m2642.37,1130.34c-9.14,36.7-107.99,55.67-130.46,59.53.95-15.92,1.86-36.09,2.52-61.59l127.94,2.06Z" style="fill: #98baf4; stroke-width: 0px;"/>
      <path d="m2620.67,1142.27c.94,0,21.98-3.14,25.74-5.02s21-26.37,9.71-32.65c-11.28-6.28-41.57,18.83-41.57,18.83l6.12,18.84Z" style="fill: #ffb27d; stroke-width: 0px;"/>
      <path d="m2492.74,1149.54s81.35,4.41,135.94-7.28c0,0,1.38-15.77-15.78-22.78,0,0-85.08-18.03-105.53-13.01-20.44,5.02-14.63,43.06-14.63,43.06Z" style="fill: #b0d0ff; stroke-width: 0px;"/>
      <path d="m2679.56,1085.7c-16.88,20.36-38.95,36.97-63.28,40.87h0c-.2-.31-7.37-11.19-6.02-27.17.62-7.4,3.06-15.89,8.86-24.94,1.78-2.78,3.37-6.03,4.78-9.64,13.29-33.9,11.31-99.23,11.31-99.23,0,0,56.42,5.91,74,31.02,10.77,15.38-2.96,56.92-29.64,89.1Z" style="fill: #b0d0ff; stroke-width: 0px;"/>
      <path d="m2580.47,941.38c-4.23-.47-6.89-1.01-6.89-1.01-4.77-1.27-7.43-8.79-8.67-18.63,8.95,2.2,13.05,9.12,14.75,12.06.77,1.32.93,4.29.81,7.58Z" style="fill: #e2915a; stroke-width: 0px;"/>
      <path d="m2557.74,956.63s-19.49-32.15-4.33-33.55c15.15-1.4,21.24,8.86,23.43,12.62,2.19,3.77-.57,20.76-.57,20.76l-18.52.17Z" style="fill: #ffb27d; stroke-width: 0px;"/>
      <path d="m2632,1098.32c-.6,4.08-1.81,7.82-3.32,11.16-4.76,10.57-12.41,17.09-12.41,17.09h0c-50.61-22.85-60.85-101.29-62.56-144.38-.69-17.32,0-28.94,0-28.94,22.83-7.56,29.25,5.58,29.25,5.58,0,0,26.95,64.1,40.94,105.99,5.35,16.03,8.8,28.81,8.11,33.5Z" style="fill: #b0d0ff; stroke-width: 0px;"/>
      <path d="m2679.56,1085.7c-16.88,20.36-38.95,36.97-63.28,40.87h0c-50.61-22.85-60.85-101.29-62.56-144.38,0,0,23.95,86.85,56.54,117.21,5.89,5.49,12.07,9.14,18.43,10.08,0,0,41.1-11.62,49.72-22.55.62-.79.99-1.17,1.16-1.22Z" style="fill: #98baf4; stroke-width: 0px;"/>
    </g>
    <g>
      <g>
        <polygon points="1757.84 1339.06 1600.65 1339.06 1553.37 1221.47 1710.32 1221.47 1757.84 1339.06" style="fill: #2b478b; stroke-width: 0px;"/>
        <polygon points="1598.81 1334.48 1806.38 1334.48 1806.38 1339.06 1600.65 1339.06 1598.81 1334.48" style="fill: #2b478b; stroke-width: 0px;"/>
      </g>
      <path d="m1640.33,1280.27c-1.19-4.13,1.2-7.48,5.34-7.48s8.44,3.35,9.63,7.48c1.19,4.13-1.2,7.48-5.34,7.48s-8.45-3.35-9.63-7.48Z" style="fill: #fff; stroke-width: 0px;"/>
    </g>
    <path d="m3033,1709.22v1c0,1.6-1.48,2.91-3.28,2.91H146.24c-1.8,0-3.27-1.32-3.27-2.91v-1c0-1.6,1.48-2.92,3.27-2.92h2883.48c1.8,0,3.28,1.32,3.28,2.92Z" style="fill: #2e3552; stroke-width: 0px;"/>
  </g>
</svg>